<?xml version="1.0" standalone="no"?>
<!DOCTYPE svg PUBLIC "-//W3C//DTD SVG 20010904//EN"
 "http://www.w3.org/TR/2001/REC-SVG-20010904/DTD/svg10.dtd">
<svg version="1.0" xmlns="http://www.w3.org/2000/svg"
 width="104.000000pt" height="104.000000pt" viewBox="0 0 104.000000 104.000000"
 preserveAspectRatio="xMidYMid meet">
<metadata>
Created by potrace 1.11, written by Peter Selinger 2001-2013
</metadata>
<g transform="translate(0.000000,104.000000) scale(0.100000,-0.100000)"
fill="#000000" stroke="none">
<path d="M345 1008 c-233 -44 -395 -278 -329 -475 46 -138 189 -232 424 -282
52 -11 112 -27 132 -36 69 -28 86 -89 39 -139 -27 -28 -22 -56 9 -56 47 0 199
99 272 178 104 111 148 217 148 357 0 231 -138 393 -386 451 -47 11 -254 12
-309 2z"/>
</g>
</svg>
